<svg xmlns="http://www.w3.org/2000/svg" width="256" height="256" viewBox="0 0 100 100"><rect width="100" height="100" rx="20" fill="#2321d3"></rect><path d="M36.55 49.45L36.55 49.45Q36.55 44.46 35.02 40.91Q33.50 37.36 30.89 35.10Q28.28 32.84 24.81 31.79Q21.34 30.73 17.36 30.73L17.36 30.73Q14.86 30.73 13.03 30.89Q11.20 31.05 9.64 31.36L9.64 31.36L9.64 68.49Q11.51 68.95 13.65 69.11Q15.80 69.27 18.06 69.27L18.06 69.27Q27.26 69.27 31.90 64.27Q36.55 59.28 36.55 49.45ZM43.02 49.45L43.02 49.45Q43.02 55.85 41.26 60.57Q39.51 65.29 36.27 68.41Q33.04 71.53 28.43 73.05Q23.83 74.57 18.14 74.57L18.14 74.57Q15.64 74.57 12.52 74.38Q9.40 74.18 6.59 73.32L6.59 73.32Q3.32 72.31 3.32 69.73L3.32 69.73L3.32 29.64Q3.32 28.39 3.94 27.73Q4.57 27.07 5.89 26.68L5.89 26.68Q8.31 25.90 11.35 25.66Q14.39 25.43 17.44 25.43L17.44 25.43Q23.13 25.43 27.85 26.95Q32.57 28.47 35.92 31.48Q39.28 34.48 41.15 38.96Q43.02 43.45 43.02 49.45ZM96.68 50L96.68 50Q96.68 56.08 94.97 60.73Q93.25 65.37 90.21 68.45Q87.17 71.53 83.03 73.13Q78.90 74.73 74.06 74.73L74.06 74.73Q69.23 74.73 65.09 73.13Q60.96 71.53 57.92 68.45Q54.88 65.37 53.16 60.73Q51.44 56.08 51.44 50L51.44 50Q51.44 43.92 53.20 39.31Q54.95 34.71 58.00 31.59Q61.04 28.47 65.17 26.87Q69.31 25.27 74.06 25.27L74.06 25.27Q78.82 25.27 82.96 26.87Q87.09 28.47 90.13 31.59Q93.17 34.71 94.93 39.31Q96.68 43.92 96.68 50ZM90.21 50L90.21 50Q90.21 40.64 85.80 35.65Q81.40 30.66 74.06 30.66L74.06 30.66Q70.40 30.66 67.43 31.94Q64.47 33.23 62.36 35.69Q60.26 38.14 59.13 41.73Q58.00 45.32 58.00 50L58.00 50Q58.00 59.36 62.36 64.35Q66.73 69.34 74.06 69.34L74.06 69.34Q81.47 69.34 85.84 64.35Q90.21 59.36 90.21 50Z" fill="#fff"></path></svg>
